<?xml version="1.0" encoding="UTF-8" standalone="no"?>
<!-- Created with Inkscape (http://www.inkscape.org/) -->

<svg
   width="68.791695mm"
   height="12.540146mm"
   viewBox="0 0 68.791694 12.540146"
   version="1.1"
   id="svg5"
   inkscape:version="1.2.2 (732a01da63, 2022-12-09)"
   sodipodi:docname="logo_text.svg"
   xmlns:inkscape="http://www.inkscape.org/namespaces/inkscape"
   xmlns:sodipodi="http://sodipodi.sourceforge.net/DTD/sodipodi-0.dtd"
   xmlns:xlink="http://www.w3.org/1999/xlink"
   xmlns="http://www.w3.org/2000/svg"
   xmlns:svg="http://www.w3.org/2000/svg">
  <sodipodi:namedview
     id="namedview7"
     pagecolor="#ffffff"
     bordercolor="#000000"
     borderopacity="0.25"
     inkscape:showpageshadow="2"
     inkscape:pageopacity="0.0"
     inkscape:pagecheckerboard="0"
     inkscape:deskcolor="#d1d1d1"
     inkscape:document-units="mm"
     showgrid="false"
     inkscape:zoom="6.2502244"
     inkscape:cx="96.716528"
     inkscape:cy="5.7597932"
     inkscape:window-width="1920"
     inkscape:window-height="1057"
     inkscape:window-x="1912"
     inkscape:window-y="-8"
     inkscape:window-maximized="1"
     inkscape:current-layer="g1667" />
  <defs
     id="defs2">
    <linearGradient
       inkscape:collect="always"
       id="linearGradient3406">
      <stop
         style="stop-color:#ff6a00;stop-opacity:1;"
         offset="0"
         id="stop3402" />
      <stop
         style="stop-color:#ff007b;stop-opacity:1;"
         offset="1"
         id="stop3404" />
    </linearGradient>
    <linearGradient
       inkscape:collect="always"
       id="linearGradient3400">
      <stop
         style="stop-color:#ff6a00;stop-opacity:1;"
         offset="0"
         id="stop3396" />
      <stop
         style="stop-color:#ff007b;stop-opacity:1;"
         offset="1"
         id="stop3398" />
    </linearGradient>
    <linearGradient
       inkscape:collect="always"
       id="linearGradient3394">
      <stop
         style="stop-color:#ff6a00;stop-opacity:1;"
         offset="0"
         id="stop3390" />
      <stop
         style="stop-color:#ff007b;stop-opacity:1;"
         offset="1"
         id="stop3392" />
    </linearGradient>
    <linearGradient
       inkscape:collect="always"
       id="linearGradient3388">
      <stop
         style="stop-color:#ff6a00;stop-opacity:1;"
         offset="0"
         id="stop3384" />
      <stop
         style="stop-color:#ff007b;stop-opacity:1;"
         offset="1"
         id="stop3386" />
    </linearGradient>
    <linearGradient
       inkscape:collect="always"
       id="linearGradient3382">
      <stop
         style="stop-color:#ff6a00;stop-opacity:1;"
         offset="0"
         id="stop3378" />
      <stop
         style="stop-color:#ff007b;stop-opacity:1;"
         offset="1"
         id="stop3380" />
    </linearGradient>
    <linearGradient
       inkscape:collect="always"
       id="linearGradient3376">
      <stop
         style="stop-color:#ff6a00;stop-opacity:1;"
         offset="0"
         id="stop3372" />
      <stop
         style="stop-color:#ff007b;stop-opacity:1;"
         offset="1"
         id="stop3374" />
    </linearGradient>
    <linearGradient
       inkscape:collect="always"
       id="linearGradient3370">
      <stop
         style="stop-color:#ff6a00;stop-opacity:1;"
         offset="0"
         id="stop3366" />
      <stop
         style="stop-color:#ff007b;stop-opacity:1;"
         offset="1"
         id="stop3368" />
    </linearGradient>
    <linearGradient
       inkscape:collect="always"
       id="linearGradient3364">
      <stop
         style="stop-color:#ff6a00;stop-opacity:1;"
         offset="0"
         id="stop3360" />
      <stop
         style="stop-color:#ff007b;stop-opacity:1;"
         offset="1"
         id="stop3362" />
    </linearGradient>
    <linearGradient
       inkscape:collect="always"
       id="linearGradient3358">
      <stop
         style="stop-color:#ff6a00;stop-opacity:1;"
         offset="0"
         id="stop3354" />
      <stop
         style="stop-color:#ff007b;stop-opacity:1;"
         offset="1"
         id="stop3356" />
    </linearGradient>
    <linearGradient
       inkscape:collect="always"
       id="linearGradient3352">
      <stop
         style="stop-color:#ff6a00;stop-opacity:1;"
         offset="0"
         id="stop3348" />
      <stop
         style="stop-color:#ff007b;stop-opacity:1;"
         offset="1"
         id="stop3350" />
    </linearGradient>
    <linearGradient
       inkscape:collect="always"
       id="linearGradient3346">
      <stop
         style="stop-color:#ff6a00;stop-opacity:1;"
         offset="0"
         id="stop3342" />
      <stop
         style="stop-color:#ff007b;stop-opacity:1;"
         offset="1"
         id="stop3344" />
    </linearGradient>
    <linearGradient
       inkscape:collect="always"
       id="linearGradient3340">
      <stop
         style="stop-color:#ff6a00;stop-opacity:1;"
         offset="0"
         id="stop3336" />
      <stop
         style="stop-color:#ff007b;stop-opacity:1;"
         offset="1"
         id="stop3338" />
    </linearGradient>
    <linearGradient
       inkscape:collect="always"
       id="linearGradient3334">
      <stop
         style="stop-color:#ff6a00;stop-opacity:1;"
         offset="0"
         id="stop3330" />
      <stop
         style="stop-color:#ff007b;stop-opacity:1;"
         offset="1"
         id="stop3332" />
    </linearGradient>
    <linearGradient
       inkscape:collect="always"
       id="linearGradient3328">
      <stop
         style="stop-color:#ff6a00;stop-opacity:1;"
         offset="0"
         id="stop3324" />
      <stop
         style="stop-color:#ff007b;stop-opacity:1;"
         offset="1"
         id="stop3326" />
    </linearGradient>
    <linearGradient
       inkscape:collect="always"
       id="linearGradient3322">
      <stop
         style="stop-color:#ff6a00;stop-opacity:1;"
         offset="0"
         id="stop3318" />
      <stop
         style="stop-color:#ff007b;stop-opacity:1;"
         offset="1"
         id="stop3320" />
    </linearGradient>
    <linearGradient
       inkscape:collect="always"
       id="linearGradient3316">
      <stop
         style="stop-color:#ff6a00;stop-opacity:1;"
         offset="0"
         id="stop3312" />
      <stop
         style="stop-color:#ff007b;stop-opacity:1;"
         offset="1"
         id="stop3314" />
    </linearGradient>
    <linearGradient
       inkscape:collect="always"
       id="linearGradient3310">
      <stop
         style="stop-color:#ff6a00;stop-opacity:1;"
         offset="0"
         id="stop3306" />
      <stop
         style="stop-color:#ff007b;stop-opacity:1;"
         offset="1"
         id="stop3308" />
    </linearGradient>
    <linearGradient
       inkscape:collect="always"
       id="linearGradient3304">
      <stop
         style="stop-color:#ff6a00;stop-opacity:1;"
         offset="0"
         id="stop3300" />
      <stop
         style="stop-color:#ff007b;stop-opacity:1;"
         offset="1"
         id="stop3302" />
    </linearGradient>
    <linearGradient
       inkscape:collect="always"
       id="linearGradient3230">
      <stop
         style="stop-color:#ff6a00;stop-opacity:1;"
         offset="0"
         id="stop3226" />
      <stop
         style="stop-color:#ff007b;stop-opacity:1;"
         offset="1"
         id="stop3228" />
    </linearGradient>
    <linearGradient
       inkscape:collect="always"
       id="linearGradient1725">
      <stop
         style="stop-color:#ff6a00;stop-opacity:1;"
         offset="0"
         id="stop1721" />
      <stop
         style="stop-color:#ff007b;stop-opacity:1;"
         offset="1"
         id="stop1723" />
    </linearGradient>
    <linearGradient
       inkscape:collect="always"
       id="linearGradient2433">
      <stop
         style="stop-color:#ffab00;stop-opacity:1;"
         offset="0"
         id="stop2429" />
      <stop
         style="stop-color:#ff007b;stop-opacity:1;"
         offset="1"
         id="stop2431" />
    </linearGradient>
    <linearGradient
       inkscape:collect="always"
       xlink:href="#linearGradient2433"
       id="linearGradient2435"
       x1="10.225274"
       y1="8.9206476"
       x2="79.016968"
       y2="8.9206476"
       gradientUnits="userSpaceOnUse" />
    <linearGradient
       inkscape:collect="always"
       xlink:href="#linearGradient1725"
       id="linearGradient6567"
       gradientUnits="userSpaceOnUse"
       x1="10.225274"
       y1="8.9206476"
       x2="79.016968"
       y2="8.9206476" />
    <linearGradient
       inkscape:collect="always"
       xlink:href="#linearGradient3230"
       id="linearGradient6569"
       gradientUnits="userSpaceOnUse"
       x1="10.225274"
       y1="8.9206476"
       x2="79.016968"
       y2="8.9206476" />
    <linearGradient
       inkscape:collect="always"
       xlink:href="#linearGradient3304"
       id="linearGradient6571"
       gradientUnits="userSpaceOnUse"
       x1="10.225274"
       y1="8.9206476"
       x2="79.016968"
       y2="8.9206476" />
    <linearGradient
       inkscape:collect="always"
       xlink:href="#linearGradient3316"
       id="linearGradient6573"
       gradientUnits="userSpaceOnUse"
       x1="10.225274"
       y1="8.9206476"
       x2="79.016968"
       y2="8.9206476" />
    <linearGradient
       inkscape:collect="always"
       xlink:href="#linearGradient3322"
       id="linearGradient6575"
       gradientUnits="userSpaceOnUse"
       x1="10.225274"
       y1="8.9206476"
       x2="79.016968"
       y2="8.9206476" />
    <linearGradient
       inkscape:collect="always"
       xlink:href="#linearGradient3328"
       id="linearGradient6577"
       gradientUnits="userSpaceOnUse"
       x1="10.225274"
       y1="8.9206476"
       x2="79.016968"
       y2="8.9206476" />
    <linearGradient
       inkscape:collect="always"
       xlink:href="#linearGradient3334"
       id="linearGradient6579"
       gradientUnits="userSpaceOnUse"
       x1="10.225274"
       y1="8.9206476"
       x2="79.016968"
       y2="8.9206476" />
    <linearGradient
       inkscape:collect="always"
       xlink:href="#linearGradient3340"
       id="linearGradient6581"
       gradientUnits="userSpaceOnUse"
       x1="10.225274"
       y1="8.9206476"
       x2="79.016968"
       y2="8.9206476" />
    <linearGradient
       inkscape:collect="always"
       xlink:href="#linearGradient3346"
       id="linearGradient6583"
       gradientUnits="userSpaceOnUse"
       x1="10.225274"
       y1="8.9206476"
       x2="79.016968"
       y2="8.9206476" />
    <linearGradient
       inkscape:collect="always"
       xlink:href="#linearGradient3352"
       id="linearGradient6585"
       gradientUnits="userSpaceOnUse"
       x1="10.225274"
       y1="8.9206476"
       x2="79.016968"
       y2="8.9206476" />
    <linearGradient
       inkscape:collect="always"
       xlink:href="#linearGradient3310"
       id="linearGradient6587"
       gradientUnits="userSpaceOnUse"
       x1="10.225274"
       y1="8.9206476"
       x2="79.016968"
       y2="8.9206476" />
    <linearGradient
       inkscape:collect="always"
       xlink:href="#linearGradient3406"
       id="linearGradient6589"
       gradientUnits="userSpaceOnUse"
       x1="10.225274"
       y1="8.9206476"
       x2="79.016968"
       y2="8.9206476" />
    <linearGradient
       inkscape:collect="always"
       xlink:href="#linearGradient3400"
       id="linearGradient6591"
       gradientUnits="userSpaceOnUse"
       x1="10.225274"
       y1="8.9206476"
       x2="79.016968"
       y2="8.9206476" />
    <linearGradient
       inkscape:collect="always"
       xlink:href="#linearGradient3394"
       id="linearGradient6593"
       gradientUnits="userSpaceOnUse"
       x1="10.225274"
       y1="8.9206476"
       x2="79.016968"
       y2="8.9206476" />
    <linearGradient
       inkscape:collect="always"
       xlink:href="#linearGradient3388"
       id="linearGradient6595"
       gradientUnits="userSpaceOnUse"
       x1="10.225274"
       y1="8.9206476"
       x2="79.016968"
       y2="8.9206476" />
    <linearGradient
       inkscape:collect="always"
       xlink:href="#linearGradient3382"
       id="linearGradient6597"
       gradientUnits="userSpaceOnUse"
       x1="10.225274"
       y1="8.9206476"
       x2="79.016968"
       y2="8.9206476" />
    <linearGradient
       inkscape:collect="always"
       xlink:href="#linearGradient3376"
       id="linearGradient6599"
       gradientUnits="userSpaceOnUse"
       x1="10.225274"
       y1="8.9206476"
       x2="79.016968"
       y2="8.9206476" />
    <linearGradient
       inkscape:collect="always"
       xlink:href="#linearGradient3370"
       id="linearGradient6601"
       gradientUnits="userSpaceOnUse"
       x1="10.225274"
       y1="8.9206476"
       x2="79.016968"
       y2="8.9206476" />
    <linearGradient
       inkscape:collect="always"
       xlink:href="#linearGradient3364"
       id="linearGradient6603"
       gradientUnits="userSpaceOnUse"
       x1="10.225274"
       y1="8.9206476"
       x2="79.016968"
       y2="8.9206476" />
    <linearGradient
       inkscape:collect="always"
       xlink:href="#linearGradient3358"
       id="linearGradient6605"
       gradientUnits="userSpaceOnUse"
       x1="10.225274"
       y1="8.9206476"
       x2="79.016968"
       y2="8.9206476" />
  </defs>
  <g
     inkscape:label="Layer 1"
     inkscape:groupmode="layer"
     id="layer1"
     transform="translate(-10.225274,-2.6505753)">
    <g
       aria-label="saberstrike セイバーストライク "
       id="text1516"
       style="font-size:1.41111px;font-family:Ubuntu;-inkscape-font-specification:Ubuntu;text-align:center;text-anchor:middle;fill:url(#linearGradient2435);stroke-width:0.1;stroke-opacity:0.5;stop-color:#000000">
      <g
         id="g1667">
        <path
           d="M 11.283607,7.9422441 10.225274,6.8839103 h 4.233335 V 5.8255765 H 11.283607 L 10.225274,4.7672428 V 3.708909 l 1.058333,-1.0583337 h 3.175002 l 1.058334,1.0583337 h -4.233336 v 1.0583338 h 3.175002 l 1.058334,1.0583337 v 1.0583338 l -1.058334,1.0583338 z"
           style="font-size:8.46667px;font-family:'Octapost NBP';-inkscape-font-specification:'Octapost NBP';fill:url(#linearGradient6567)"
           id="path6114" />
        <path
           d="M 20.808611,4.7672428 V 3.708909 H 17.63361 V 4.7672428 Z M 16.575276,7.9422441 V 3.708909 L 17.63361,2.6505753 h 3.175001 L 21.866945,3.708909 V 7.9422441 H 20.808611 V 5.8255765 H 17.63361 v 2.1166676 z"
           style="font-size:8.46667px;font-family:'Octapost NBP';-inkscape-font-specification:'Octapost NBP';fill:url(#linearGradient6569)"
           id="path6116" />
        <path
           d="M 27.158613,6.8839103 V 5.8255765 h -3.175001 v 1.0583338 z m 0,-2.1166675 V 3.708909 H 23.983612 V 4.7672428 Z M 22.925278,7.9422441 V 2.6505753 h 4.233335 l 1.058334,1.0583337 v 1.0583338 l -0.529167,0.5291669 0.529167,0.5291668 v 1.0583338 l -1.058334,1.0583338 z"
           style="font-size:8.46667px;font-family:'Octapost NBP';-inkscape-font-specification:'Octapost NBP';fill:url(#linearGradient6571)"
           id="path6118" />
        <path
           d="M 30.334,7.9422441 V 2.6505753 h 4.232949 V 3.708909 h -4.233335 v 1.0583338 h 4.233335 V 5.8255765 H 30.333614 L 30.334,6.8839103 h 4.232949 v 1.0583338 z"
           style="font-size:8.46667px;font-family:'Octapost NBP';-inkscape-font-specification:'Octapost NBP';fill:url(#linearGradient6573)"
           id="path6120"
           sodipodi:nodetypes="ccccccccccccc" />
        <path
           d="M 39.858618,4.7672428 V 3.708909 H 36.683617 V 4.7672428 Z M 35.625283,7.9422441 V 2.6505753 h 4.233335 l 1.058334,1.0583337 v 1.0583338 l -1.058334,1.0583337 h -1.058334 l 2.116668,2.1166676 H 39.858618 L 37.74195,5.8255765 h -1.058333 v 2.1166676 z"
           style="font-size:8.46667px;font-family:'Octapost NBP';-inkscape-font-specification:'Octapost NBP';fill:url(#linearGradient6575)"
           id="path6122" />
        <path
           d="M 43.033619,7.9422441 41.975285,6.8839103 H 46.20862 V 5.8255765 H 43.033619 L 41.975285,4.7672428 V 3.708909 l 1.058334,-1.0583337 h 3.175001 l 1.058334,1.0583337 h -4.233335 v 1.0583338 h 3.175001 l 1.058334,1.0583337 V 6.8839103 L 46.20862,7.9422441 Z"
           style="font-size:8.46667px;font-family:'Octapost NBP';-inkscape-font-specification:'Octapost NBP';fill:url(#linearGradient6577)"
           id="path6124" />
        <path
           d="M 50.441955,7.9422441 V 3.708909 H 48.325287 V 2.6505753 h 5.291669 V 3.708909 h -2.116667 v 4.2333351 z"
           style="font-size:8.46667px;font-family:'Octapost NBP';-inkscape-font-specification:'Octapost NBP';fill:url(#linearGradient6579)"
           id="path6126" />
        <path
           d="M 58.908625,4.7672428 V 3.708909 H 55.733624 V 4.7672428 Z M 54.67529,7.9422441 V 2.6505753 h 4.233335 l 1.058334,1.0583337 v 1.0583338 l -1.058334,1.0583337 h -1.058334 l 2.116668,2.1166676 H 58.908625 L 56.791957,5.8255765 h -1.058333 v 2.1166676 z"
           style="font-size:8.46667px;font-family:'Octapost NBP';-inkscape-font-specification:'Octapost NBP';fill:url(#linearGradient6581)"
           id="path6128" />
        <path
           d="M 61.025292,7.9422441 V 6.8839103 H 63.14196 V 3.708909 H 61.025292 V 2.6505753 h 5.291669 V 3.708909 h -2.116668 v 3.1750013 h 2.116668 v 1.0583338 z"
           style="font-size:8.46667px;font-family:'Octapost NBP';-inkscape-font-specification:'Octapost NBP';fill:url(#linearGradient6583)"
           id="path6130" />
        <path
           d="M 67.375294,7.9422441 V 2.6505753 h 1.058334 v 2.1166675 h 1.058334 l 2.116667,-2.1166675 h 1.058334 l -2.116667,2.1166675 h 1.058333 l 1.058334,1.0583337 V 7.9422441 H 71.608629 V 5.8255765 h -3.175001 v 2.1166676 z"
           style="font-size:8.46667px;font-family:'Octapost NBP';-inkscape-font-specification:'Octapost NBP';fill:url(#linearGradient6585)"
           id="path6132" />
        <path
           d="M 74.784,7.9422441 V 2.6505753 h 4.232965 V 3.708909 H 74.784 l -3.7e-4,1.0583338 h 4.233335 V 5.8255765 H 74.78363 v 1.0583338 h 4.233335 v 1.0583338 z"
           style="font-size:8.46667px;font-family:'Octapost NBP';-inkscape-font-specification:'Octapost NBP';fill:url(#linearGradient6587)"
           id="path6134"
           sodipodi:nodetypes="ccccccccccccc" />
        <path
           d="m 22.724111,11.5968 1.284331,-0.159853 q 0,-0.749652 0.0055,-1.5048161 l 0.920529,-0.00551 q -0.01654,0.7000431 -0.03307,1.3890611 l 2.700953,-0.347265 0.225998,0.628385 -1.604036,1.852082 -0.837846,-0.35829 0.926041,-1.041796 -1.433159,0.220486 q -0.01102,0.617361 -0.01654,1.223697 0.0055,0.104731 0.0055,0.209462 0.0055,0.09922 0.04961,0.198437 0.0441,0.09371 0.143316,0.132291 0.09922,0.03859 0.20395,0.04961 0.319704,0.02756 0.644921,0.01102 0.325217,-0.01654 0.650433,-0.03858 0.325217,-0.02205 0.650434,-0.05512 l -0.08819,0.937065 q -0.424436,0.02756 -0.843359,0.03307 -0.418923,0.01102 -0.843359,0 -0.418923,-0.0055 -0.832334,-0.0882 -0.314193,-0.06615 -0.474045,-0.330729 -0.15434,-0.264583 -0.137804,-0.573263 0.0055,-0.782725 0.0055,-1.570962 l -1.20716,0.187413 z"
           style="font-size:5.64444px;font-family:Keifont;-inkscape-font-specification:Keifont;fill:url(#linearGradient6589)"
           id="path6136" />
        <path
           d="m 32.1113,10.213251 0.722092,0.655945 q -0.424436,0.28112 -1.273307,0.909505 l 0.02205,3.230119 -1.014236,0.02205 0.0441,-2.563149 q -1.014236,0.711067 -1.857594,1.146527 l -0.407899,-0.859895 q 0.926041,-0.523654 2.022958,-1.295355 1.10243,-0.777213 1.741839,-1.245745 z"
           style="font-size:5.64444px;font-family:Keifont;-inkscape-font-specification:Keifont;fill:url(#linearGradient6591)"
           id="path6138" />
        <path
           d="m 34.068113,11.012512 1.041796,0.06615 q -0.143316,0.832334 -0.297656,1.64262 -0.15434,0.810286 -0.402387,1.587499 l -0.970138,-0.137804 q 0.418923,-1.554426 0.628385,-3.158461 z m 3.026169,0 q 0.209462,1.604035 0.633897,3.158461 l -0.970138,0.137804 q -0.253559,-0.777213 -0.407899,-1.587499 -0.15434,-0.810286 -0.292144,-1.64262 z m 0.09371,0 -0.336241,-0.887456 0.402387,-0.1433157 0.358289,0.8929677 z m 0.700043,-0.23151 -0.330729,-0.9150169 0.413411,-0.148828 0.35829,0.9260409 z"
           style="font-size:5.64444px;font-family:Keifont;-inkscape-font-specification:Keifont;fill:url(#linearGradient6593)"
           id="path6140" />
        <path
           d="m 38.736903,11.971626 3.886065,-0.08819 -0.02756,1.036283 -3.880553,0.06615 z"
           style="font-size:5.64444px;font-family:Keifont;-inkscape-font-specification:Keifont;fill:url(#linearGradient6595)"
           id="path6142" />
        <path
           d="m 43.758469,10.516419 3.246656,-0.159853 0.429947,0.655946 q -0.518142,0.766189 -1.096917,1.477256 l 1.570962,1.118966 -0.650433,0.854383 -1.510329,-1.311891 q -0.03858,0.03859 -0.07166,0.07166 -0.815798,0.815798 -1.648133,1.604035 l -0.655945,-0.815798 q 0.810286,-0.633897 1.559938,-1.350477 0.650433,-0.622872 1.218185,-1.333939 l -2.392273,0.110242 z"
           style="font-size:5.64444px;font-family:Keifont;-inkscape-font-specification:Keifont;fill:url(#linearGradient6597)"
           id="path6144" />
        <path
           d="m 49.270618,10.196714 h 1.058332 l -0.02205,1.422134 2.122177,1.129991 -0.35829,0.881944 -1.774911,-1.014236 -0.03307,2.144226 h -1.036284 z"
           style="font-size:5.64444px;font-family:Keifont;-inkscape-font-specification:Keifont;fill:url(#linearGradient6599)"
           id="path6146" />
        <path
           d="m 53.542533,11.82831 3.880553,-0.02756 0.09371,0.534679 q -0.09371,0.507117 -0.281119,0.992186 -0.187413,0.479557 -0.429948,0.937066 -0.237022,0.457508 -0.507118,0.892968 l -1.069356,-0.292144 q 0.727603,-0.986675 1.047308,-2.171787 l -2.723002,0.03307 z m 0.314193,-1.576474 3.279728,-0.06615 -0.02205,0.926041 -3.274216,0.03858 z"
           style="font-size:5.64444px;font-family:Keifont;-inkscape-font-specification:Keifont;fill:url(#linearGradient6601)"
           id="path6148" />
        <path
           d="m 61.915487,10.213251 0.722092,0.655945 q -0.424436,0.28112 -1.273306,0.909505 l 0.02205,3.230119 -1.014235,0.02205 0.0441,-2.563149 q -1.014235,0.711067 -1.857594,1.146527 L 58.15069,12.754351 q 0.926041,-0.523654 2.022958,-1.295355 1.10243,-0.777213 1.741839,-1.245745 z"
           style="font-size:5.64444px;font-family:Keifont;-inkscape-font-specification:Keifont;fill:url(#linearGradient6603)"
           id="path6150" />
        <path
           d="m 64.192004,9.8384244 1.063845,0.1598523 -0.341753,0.9260413 2.07808,-0.181901 0.407899,0.584288 -2.166275,3.864016 -0.881944,-0.429948 1.736327,-3.136412 -1.482768,0.115755 -0.457508,1.234721 -0.94809,-0.176389 z"
           style="font-size:5.64444px;font-family:Keifont;-inkscape-font-specification:Keifont;fill:url(#linearGradient6605)"
           id="path6152" />
      </g>
    </g>
  </g>
</svg>
